<svg xmlns="http://www.w3.org/2000/svg" xml:space="preserve" fill-rule="evenodd" stroke-linejoin="round" stroke-miterlimit="2" clip-rule="evenodd" viewBox="0 0 24 24">
  <path fill-rule="nonzero" d="M12.015 7c4.751 0 8.063 3.012 9.504 4.636C20.118 13.473 16.806 17 12.015 17c-4.42 0-7.93-3.536-9.478-5.407C4.03 9.946 7.354 7 12.015 7Zm0-2C4.446 5 0 11.551 0 11.551S4.835 19 12.015 19C19.748 19 24 11.551 24 11.551S19.709 5 12.015 5ZM12 10c1.103 0 2 .897 2 2s-.897 2-2 2-2-.897-2-2 .897-2 2-2Zm0-2a4 4 0 1 0 .002 8.002A4 4 0 0 0 12 8Z"/>
  <path d="m3.034 18.845 19-12-1.068-1.69-19 12 1.068 1.69Z"/>
  <path d="m3.034 18.845 19-12-1.068-1.69-19 12 1.068 1.69Z"/>
</svg>
