<svg xmlns="http://www.w3.org/2000/svg" xml:space="preserve" fill-rule="evenodd" stroke-linecap="round" stroke-linejoin="round" stroke-miterlimit="1.5" clip-rule="evenodd" viewBox="0 0 24 24">
  <circle cx="4" cy="12" r="1" transform="matrix(2 0 0 2 -3 -12)"/>
  <circle cx="4" cy="12" r="1" transform="matrix(3 0 0 3 6 -30)"/>
  <circle cx="4" cy="12" r="1" transform="matrix(3 0 0 3 6 -18)"/>
  <path fill="none" stroke="#000" d="M8.6 13.7A4 4 0 0 1 5 16a4 4 0 0 1 0-8c1.6 0 3 1 3.6 2.3L18 6v12l-9.4-4.3h0Z"/>
  <path fill="none" stroke="#000" d="M1.8 3.6C2.8 2 4.5 1 6.5 1h11c3 0 5.5 2.5 5.5 5.5v11c0 3-2.5 5.5-5.5 5.5h-11c-2 0-3.7-1-4.7-2.6a9 9 0 1 0 0-16.8Z"/>
  <path fill="none" stroke="#000" d="m3.9 18.4 1.1.1a6.5 6.5 0 0 0 6.5-6.5c0-2.5-1.4-4.7-3.5-5.8a6 6 0 0 0-1.7-.6L5 5.5l-1.1.1c-1.1.2-2 .6-2.9 1.3v-.4c0-1 .3-2 .8-2.9a9 9 0 1 1 0 16.8c-.5-.8-.8-1.8-.8-2.9v-.4a6 6 0 0 0 2.9 1.3Z"/>
  <path fill="none" stroke="#000" d="m1.9 6.3 1-.4 1-.3L5 5.5c1 0 2 .3 3 .7 1.7 1 3 2.5 3.4 4.5l.1 1.3c0 2.5-1.4 4.6-3.4 5.7l-.6.3-1.2.4-1.3.1-1.1-.1c-1.1-.2-2-.6-2.9-1.3V6.9l.9-.6Z"/>
</svg>
